<?xml version="1.0" standalone="no"?>
<!DOCTYPE svg PUBLIC "-//W3C//DTD SVG 20010904//EN"
 "http://www.w3.org/TR/2001/REC-SVG-20010904/DTD/svg10.dtd">
<svg version="1.0" xmlns="http://www.w3.org/2000/svg"
 width="1000.000000pt" height="785.000000pt" viewBox="0 0 1000.000000 785.000000"
 preserveAspectRatio="xMidYMid meet">
<metadata>
Created by potrace 1.16, written by Peter Selinger 2001-2019
</metadata>
<g transform="translate(0.000000,785.000000) scale(0.100000,-0.100000)"
fill="#000000" stroke="none">
<path d="M2503 5944 c-26 -15 -54 -44 -70 -72 l-28 -47 -3 -1935 c-2 -1424 0
-1949 8 -1988 14 -63 57 -117 115 -143 35 -16 70 -19 296 -19 l257 0 -19 61
c-10 33 -19 87 -19 120 l0 59 -195 0 -195 0 0 1375 0 1375 2350 0 2350 0 0
-1375 0 -1375 -195 0 -195 0 0 -59 c0 -33 -9 -87 -19 -120 l-19 -61 257 0
c226 0 261 3 296 19 51 23 101 80 115 130 7 27 9 648 8 1987 -3 1949 -3 1949
-24 1989 -12 23 -41 54 -68 73 l-48 32 -2457 0 -2456 0 -42 -26z m3304 -415
c96 -36 141 -156 93 -249 -65 -128 -262 -124 -316 7 -61 146 78 297 223 242z
m624 -12 c139 -73 112 -286 -41 -327 -109 -29 -220 56 -220 168 0 140 138 224
261 159z m599 3 c107 -55 127 -195 41 -281 -89 -89 -227 -66 -281 47 -74 153
89 311 240 234z"/>
<path d="M3114 4439 c-11 -6 -28 -23 -37 -39 -15 -25 -17 -88 -17 -665 0 -580
2 -639 17 -666 9 -15 28 -33 43 -39 17 -7 189 -10 532 -8 l507 3 23 23 23 23
3 647 c2 474 -1 654 -9 675 -24 57 -22 57 -566 56 -313 0 -506 -4 -519 -10z"/>
<path d="M4839 4435 c-45 -25 -63 -65 -60 -133 1 -13 16 -39 35 -58 l34 -34
1097 0 c1236 0 1139 -6 1171 77 15 38 15 47 3 80 -9 21 -29 48 -48 60 l-34 23
-1086 0 c-918 -1 -1090 -3 -1112 -15z"/>
<path d="M4833 3940 c-41 -25 -53 -48 -53 -105 0 -40 5 -52 34 -81 l34 -34
790 0 790 0 31 25 c63 54 60 146 -8 192 l-34 23 -776 0 c-751 0 -777 -1 -808
-20z"/>
<path d="M6739 3945 c-39 -21 -59 -59 -59 -111 0 -39 5 -51 34 -80 l34 -34
150 0 c147 0 151 1 181 26 43 36 58 89 38 137 -28 65 -62 77 -217 77 -97 -1
-142 -5 -161 -15z"/>
<path d="M4833 3451 c-41 -26 -53 -49 -53 -106 0 -40 5 -52 34 -81 l34 -34
1100 0 1100 0 31 25 c60 51 62 132 5 186 l-26 24 -1096 3 c-1072 2 -1098 2
-1129 -17z"/>
<path d="M5275 3005 c-17 -9 -36 -25 -44 -37 -23 -37 -711 -2066 -711 -2097 0
-99 83 -165 175 -140 69 19 83 45 182 335 50 148 209 613 352 1033 144 421
261 777 261 793 0 94 -123 158 -215 113z"/>
<path d="M4155 2446 c-22 -7 -206 -86 -410 -175 -406 -177 -431 -193 -455
-282 -21 -76 11 -177 67 -217 16 -11 206 -97 423 -192 334 -146 403 -173 446
-174 59 0 89 16 131 71 24 31 28 45 28 103 0 54 -5 73 -25 103 -31 45 -67 64
-305 162 -104 43 -193 81 -197 85 -5 3 97 48 224 100 128 52 245 105 260 118
58 49 64 164 11 229 -60 75 -119 96 -198 69z"/>
<path d="M5698 2431 c-55 -35 -88 -96 -88 -165 0 -101 22 -117 300 -232 162
-67 234 -102 224 -107 -8 -5 -109 -48 -225 -97 -116 -49 -222 -99 -236 -112
-14 -13 -34 -40 -44 -60 -62 -122 42 -275 171 -252 42 8 803 338 844 367 15
11 39 43 52 71 40 86 28 169 -33 228 -30 28 -120 72 -408 198 -203 89 -387
169 -409 176 -58 21 -97 17 -148 -15z"/>
</g>
</svg>
