<?xml version="1.0" encoding="UTF-8"?>
<svg version="1.1" viewBox="0 0 2048 2048" width="512" height="512" xmlns="http://www.w3.org/2000/svg">
<path transform="translate(141)" d="m0 0h1765l1 1875-1 2-5 1h-1417v170h-4l-5-5-44-29-31-21-5 1-78 52-1 2h-4v-170h-167l-4-2zm716 625-21 3-16 5-16 7-15 10-13 11-7 7-9 12-8 13-8 18-5 18-2 18v13l3 21 5 17 9 19 10 15 10 12h2l1 3 11 9 15 10 15 7 18 6 13 2h32l20-4 16-6 17-9 14-10 12-11 11-14 7-11 8-17 5-15 3-20v-19l-2-15-5-19-8-18-7-12-9-12-16-16-16-11-16-8-18-6-11-2-11-1zm-325 1-9 1v252l66 1 3-1v-75l1-2h33l20-1 15-4 16-8 11-8 8-8 9-13 6-13 4-13 2-17-1-16-3-12-4-11-7-13-8-10-11-11-14-9-15-6-9-2-25-1zm526 0-28 1v252h69l1-77h25l6 9 15 27 10 17 14 24h77l-2-6-30-52-16-28-3-9 5-2 12-12 8-13 5-11 4-15 1-6v-21l-4-17-7-16-8-12-9-10-10-8-14-8-14-5-6-1-38-1zm199 0-2 1v59l72 1 1 2v190h69l1-192h69l3-1v-60zm-431 313-17 3-18 6-19 10-13 10-10 9-10 11-9 14-8 16-6 17-3 17-1 18 2 18 4 16 6 16 8 15 8 11 10 12h2l1 3 11 9 14 9 16 8 17 5 20 3h19l20-3 16-5 16-7 11-7 13-10 7-6v-2h2l11-14 9-14 5-11 6-18 3-16v-29l-4-19-6-18-11-21-11-14-7-8-14-11-14-9-15-7-13-4-16-3zm612 0-20 4-15 5-17 9-16 12-10 9-9 11-7 10-9 17-7 20-3 19v22l3 19 6 18 8 17 8 12 9 11 12 12 14 10 19 10 15 5 16 3 9 1h18l20-3 17-5 17-8 15-10 13-11 10-11 7-10 8-14 6-14 5-18 2-19-1-21-4-19-7-19-9-17-13-17-10-10-15-11-21-11-15-5-16-3zm-915 1v253h68l1-5v-88l2-1h82l1-12v-44l-84-1-1-12v-30h104v-60zm482 0v253h184v-60l-114-1-1-192zm215 0v253h68l1-2v-251z"/>
<path transform="translate(838,999)" d="m0 0 15 1 10 3 11 6 10 9 8 12 4 10 3 12 1 16-2 17-4 13-6 12-9 11-12 8-12 4-5 1h-19l-11-3-10-5-10-9-6-7-7-14-4-15-1-8v-12l3-17 5-14 7-11 9-9 10-6 7-3z"/>
<path transform="translate(1451,999)" d="m0 0 14 1 13 4 11 7 9 9 8 14 4 11 2 11v20l-3 15-5 13-8 12-10 9-14 7-9 2h-20l-13-4-12-7-8-8-8-13-5-14-2-10v-22l3-14 5-13 9-13 9-8 12-6 8-2z"/>
<path transform="translate(857,686)" d="m0 0h18l11 3 12 6 12 11 8 14 4 11 2 11v22l-4 18-8 16-10 11-10 6-10 4-13 2-16-1-10-3-9-5-10-9-6-8-7-14-3-12-1-7v-18l4-18 5-12 8-11 9-8 14-7z"/>
<path transform="translate(1100,686)" d="m0 0h41l8 2 7 6 4 8 2 14-2 11-6 10-3 3-9 2h-42l-1-1v-54z"/>
<path transform="translate(593,686)" d="m0 0h34l8 2 8 7 3 6 1 5v17l-3 9-6 7-4 2-10 1h-31l-1-1-1-12v-41z"/>
</svg>
